# xmcd
#
# Track frame offsets:
#	197
#	74765
#	139837
#	182960
#	215282
#
# Disc length: 3591 seconds
#
# Revision: 0
# Processed by: cddbd v1.5.2PL0 Copyright (c) Steve Scherf et al.
# Submitted via: EasyCDDAExtractor 16.0.8.2
#
DISCID=500e0505
DTITLE=Άνευ ερμηνευτού - A London sympony ή sym. No 2-Vaughan Williams
DYEAR=1971
DGENRE=Κλασική
TTITLE0=Fantasia on a theme by Thomas Tallis [London phil.]
TTITLE1=First movement: Lento-Allegro risoluto [London phil.]
TTITLE2=Second movement: Lento [London phil.]
TTITLE3=Third movement: Scherzo (Nocturne, Allegro vivace) [London phil.]
TTITLE4=Fourth movement: Andante con moto-Maestoso alla marcia [London p.]
EXTD=
EXTT0=
EXTT1=
EXTT2=
EXTT3=
EXTT4=
PLAYORDER=
